<svg width="130" height="40" viewBox="0 0 130 40" fill="none" xmlns="http://www.w3.org/2000/svg">
<rect x="6" width="124" height="40" fill="black"/>
<rect width="124" height="40" fill="black"/>
<path d="M32.964 16.712C32.908 16.656 32.804 16.58 32.652 16.484C32.508 16.388 32.328 16.296 32.112 16.208C31.904 16.112 31.676 16.032 31.428 15.968C31.18 15.904 30.928 15.872 30.672 15.872C30.216 15.872 29.876 15.956 29.652 16.124C29.428 16.292 29.316 16.528 29.316 16.832C29.316 17.008 29.356 17.156 29.436 17.276C29.524 17.388 29.648 17.488 29.808 17.576C29.968 17.664 30.168 17.744 30.408 17.816C30.656 17.888 30.94 17.964 31.26 18.044C31.676 18.156 32.052 18.276 32.388 18.404C32.732 18.532 33.02 18.692 33.252 18.884C33.492 19.076 33.676 19.308 33.804 19.58C33.932 19.844 33.996 20.172 33.996 20.564C33.996 21.02 33.908 21.412 33.732 21.74C33.564 22.06 33.332 22.32 33.036 22.52C32.748 22.72 32.412 22.868 32.028 22.964C31.652 23.052 31.256 23.096 30.84 23.096C30.2 23.096 29.568 23 28.944 22.808C28.32 22.616 27.76 22.344 27.264 21.992L27.996 20.564C28.068 20.636 28.196 20.732 28.38 20.852C28.572 20.964 28.796 21.08 29.052 21.2C29.308 21.312 29.592 21.408 29.904 21.488C30.216 21.568 30.536 21.608 30.864 21.608C31.776 21.608 32.232 21.316 32.232 20.732C32.232 20.548 32.18 20.392 32.076 20.264C31.972 20.136 31.824 20.024 31.632 19.928C31.44 19.832 31.208 19.744 30.936 19.664C30.664 19.584 30.36 19.496 30.024 19.4C29.616 19.288 29.26 19.168 28.956 19.04C28.66 18.904 28.412 18.748 28.212 18.572C28.012 18.388 27.86 18.18 27.756 17.948C27.66 17.708 27.612 17.424 27.612 17.096C27.612 16.664 27.692 16.28 27.852 15.944C28.012 15.608 28.232 15.328 28.512 15.104C28.8 14.88 29.132 14.712 29.508 14.6C29.884 14.48 30.288 14.42 30.72 14.42C31.32 14.42 31.872 14.516 32.376 14.708C32.88 14.892 33.32 15.112 33.696 15.368L32.964 16.712ZM39.1954 23.12C38.6834 23.12 38.2234 23.032 37.8154 22.856C37.4074 22.68 37.0594 22.444 36.7714 22.148C36.4914 21.844 36.2754 21.496 36.1234 21.104C35.9714 20.712 35.8954 20.3 35.8954 19.868C35.8954 19.428 35.9714 19.012 36.1234 18.62C36.2754 18.228 36.4914 17.884 36.7714 17.588C37.0594 17.284 37.4074 17.044 37.8154 16.868C38.2234 16.692 38.6834 16.604 39.1954 16.604C39.7074 16.604 40.1634 16.692 40.5634 16.868C40.9714 17.044 41.3154 17.284 41.5954 17.588C41.8834 17.884 42.1034 18.228 42.2554 18.62C42.4074 19.012 42.4834 19.428 42.4834 19.868C42.4834 20.3 42.4074 20.712 42.2554 21.104C42.1034 21.496 41.8874 21.844 41.6074 22.148C41.3274 22.444 40.9834 22.68 40.5754 22.856C40.1674 23.032 39.7074 23.12 39.1954 23.12ZM37.5514 19.868C37.5514 20.148 37.5914 20.404 37.6714 20.636C37.7594 20.86 37.8754 21.056 38.0194 21.224C38.1714 21.392 38.3474 21.524 38.5474 21.62C38.7474 21.708 38.9634 21.752 39.1954 21.752C39.4274 21.752 39.6434 21.708 39.8434 21.62C40.0434 21.524 40.2154 21.392 40.3594 21.224C40.5114 21.056 40.6274 20.856 40.7074 20.624C40.7954 20.392 40.8394 20.136 40.8394 19.856C40.8394 19.584 40.7954 19.332 40.7074 19.1C40.6274 18.868 40.5114 18.668 40.3594 18.5C40.2154 18.332 40.0434 18.204 39.8434 18.116C39.6434 18.02 39.4274 17.972 39.1954 17.972C38.9634 17.972 38.7474 18.02 38.5474 18.116C38.3474 18.212 38.1714 18.344 38.0194 18.512C37.8754 18.68 37.7594 18.88 37.6714 19.112C37.5914 19.344 37.5514 19.596 37.5514 19.868ZM48.5367 23.12C48.0407 23.12 47.6087 23.012 47.2407 22.796C46.8727 22.572 46.5847 22.272 46.3767 21.896V25.556H44.7687V16.712H46.1727V17.792C46.4047 17.424 46.7047 17.136 47.0727 16.928C47.4407 16.712 47.8647 16.604 48.3447 16.604C48.7687 16.604 49.1607 16.692 49.5207 16.868C49.8807 17.036 50.1887 17.268 50.4447 17.564C50.7087 17.852 50.9127 18.196 51.0567 18.596C51.2087 18.988 51.2847 19.404 51.2847 19.844C51.2847 20.3 51.2167 20.728 51.0807 21.128C50.9447 21.528 50.7527 21.876 50.5047 22.172C50.2647 22.468 49.9767 22.7 49.6407 22.868C49.3047 23.036 48.9367 23.12 48.5367 23.12ZM47.9967 21.752C48.2367 21.752 48.4567 21.7 48.6567 21.596C48.8647 21.492 49.0407 21.352 49.1847 21.176C49.3287 21 49.4407 20.796 49.5207 20.564C49.6007 20.332 49.6407 20.092 49.6407 19.844C49.6407 19.58 49.5967 19.336 49.5087 19.112C49.4207 18.88 49.2967 18.68 49.1367 18.512C48.9847 18.344 48.8007 18.212 48.5847 18.116C48.3767 18.02 48.1487 17.972 47.9007 17.972C47.7487 17.972 47.5927 18 47.4327 18.056C47.2727 18.104 47.1247 18.176 46.9887 18.272C46.8527 18.368 46.7287 18.48 46.6167 18.608C46.5127 18.736 46.4327 18.876 46.3767 19.028V20.504C46.5207 20.864 46.7407 21.164 47.0367 21.404C47.3327 21.636 47.6527 21.752 47.9967 21.752ZM59.4182 23H57.8102V19.472C57.8102 18.976 57.7182 18.612 57.5342 18.38C57.3502 18.14 57.0902 18.02 56.7542 18.02C56.6102 18.02 56.4582 18.052 56.2982 18.116C56.1382 18.18 55.9862 18.272 55.8422 18.392C55.6982 18.504 55.5662 18.64 55.4462 18.8C55.3262 18.96 55.2382 19.136 55.1822 19.328V23H53.5742V14.24H55.1822V17.876C55.4142 17.468 55.7262 17.156 56.1182 16.94C56.5182 16.716 56.9582 16.604 57.4382 16.604C57.8462 16.604 58.1782 16.676 58.4342 16.82C58.6902 16.956 58.8902 17.14 59.0342 17.372C59.1782 17.604 59.2782 17.868 59.3342 18.164C59.3902 18.46 59.4182 18.764 59.4182 19.076V23ZM64.9204 23.12C64.4084 23.12 63.9484 23.032 63.5404 22.856C63.1324 22.68 62.7844 22.444 62.4964 22.148C62.2164 21.844 62.0004 21.496 61.8484 21.104C61.6964 20.712 61.6204 20.3 61.6204 19.868C61.6204 19.428 61.6964 19.012 61.8484 18.62C62.0004 18.228 62.2164 17.884 62.4964 17.588C62.7844 17.284 63.1324 17.044 63.5404 16.868C63.9484 16.692 64.4084 16.604 64.9204 16.604C65.4324 16.604 65.8884 16.692 66.2884 16.868C66.6964 17.044 67.0404 17.284 67.3204 17.588C67.6084 17.884 67.8284 18.228 67.9804 18.62C68.1324 19.012 68.2084 19.428 68.2084 19.868C68.2084 20.3 68.1324 20.712 67.9804 21.104C67.8284 21.496 67.6124 21.844 67.3324 22.148C67.0524 22.444 66.7084 22.68 66.3004 22.856C65.8924 23.032 65.4324 23.12 64.9204 23.12ZM63.2764 19.868C63.2764 20.148 63.3164 20.404 63.3964 20.636C63.4844 20.86 63.6004 21.056 63.7444 21.224C63.8964 21.392 64.0724 21.524 64.2724 21.62C64.4724 21.708 64.6884 21.752 64.9204 21.752C65.1524 21.752 65.3684 21.708 65.5684 21.62C65.7684 21.524 65.9404 21.392 66.0844 21.224C66.2364 21.056 66.3524 20.856 66.4324 20.624C66.5204 20.392 66.5644 20.136 66.5644 19.856C66.5644 19.584 66.5204 19.332 66.4324 19.1C66.3524 18.868 66.2364 18.668 66.0844 18.5C65.9404 18.332 65.7684 18.204 65.5684 18.116C65.3684 18.02 65.1524 17.972 64.9204 17.972C64.6884 17.972 64.4724 18.02 64.2724 18.116C64.0724 18.212 63.8964 18.344 63.7444 18.512C63.6004 18.68 63.4844 18.88 63.3964 19.112C63.3164 19.344 63.2764 19.596 63.2764 19.868ZM76.3377 23H74.7297V19.472C74.7297 18.968 74.6417 18.6 74.4657 18.368C74.2897 18.136 74.0457 18.02 73.7337 18.02C73.5737 18.02 73.4097 18.052 73.2417 18.116C73.0737 18.18 72.9137 18.272 72.7617 18.392C72.6177 18.504 72.4857 18.64 72.3657 18.8C72.2457 18.96 72.1577 19.136 72.1017 19.328V23H70.4937V16.712H71.9457V17.876C72.1777 17.476 72.5137 17.164 72.9537 16.94C73.3937 16.716 73.8897 16.604 74.4417 16.604C74.8337 16.604 75.1537 16.676 75.4017 16.82C75.6497 16.964 75.8417 17.152 75.9777 17.384C76.1137 17.616 76.2057 17.88 76.2537 18.176C76.3097 18.472 76.3377 18.772 76.3377 19.076V23ZM78.9359 23V16.712H80.5439V23H78.9359ZM78.9359 15.836V14.24H80.5439V15.836H78.9359ZM84.9105 23.12C84.6065 23.12 84.3225 23.072 84.0585 22.976C83.7945 22.872 83.5665 22.732 83.3745 22.556C83.1825 22.372 83.0305 22.16 82.9185 21.92C82.8145 21.68 82.7625 21.416 82.7625 21.128C82.7625 20.832 82.8265 20.56 82.9545 20.312C83.0905 20.056 83.2745 19.84 83.5065 19.664C83.7465 19.488 84.0305 19.352 84.3585 19.256C84.6865 19.152 85.0465 19.1 85.4385 19.1C85.7185 19.1 85.9905 19.124 86.2545 19.172C86.5265 19.22 86.7665 19.288 86.9745 19.376V19.016C86.9745 18.6 86.8545 18.28 86.6145 18.056C86.3825 17.832 86.0345 17.72 85.5705 17.72C85.2345 17.72 84.9065 17.78 84.5865 17.9C84.2665 18.02 83.9385 18.196 83.6025 18.428L83.1105 17.408C83.9185 16.872 84.7905 16.604 85.7265 16.604C86.6305 16.604 87.3305 16.828 87.8265 17.276C88.3305 17.716 88.5825 18.356 88.5825 19.196V21.152C88.5825 21.32 88.6105 21.44 88.6665 21.512C88.7305 21.584 88.8305 21.624 88.9665 21.632V23C88.6945 23.056 88.4585 23.084 88.2585 23.084C87.9545 23.084 87.7185 23.016 87.5505 22.88C87.3905 22.744 87.2905 22.564 87.2505 22.34L87.2145 21.992C86.9345 22.36 86.5945 22.64 86.1945 22.832C85.7945 23.024 85.3665 23.12 84.9105 23.12ZM85.3665 21.944C85.6385 21.944 85.8945 21.896 86.1345 21.8C86.3825 21.704 86.5745 21.576 86.7105 21.416C86.8865 21.28 86.9745 21.128 86.9745 20.96V20.24C86.7825 20.168 86.5745 20.112 86.3505 20.072C86.1265 20.024 85.9105 20 85.7025 20C85.2865 20 84.9465 20.096 84.6825 20.288C84.4185 20.472 84.2865 20.708 84.2865 20.996C84.2865 21.268 84.3905 21.496 84.5985 21.68C84.8065 21.856 85.0625 21.944 85.3665 21.944ZM93.6611 23.12C93.1331 23.12 92.6171 23.036 92.1131 22.868C91.6091 22.7 91.1771 22.46 90.8171 22.148L91.4171 21.14C91.8011 21.412 92.1731 21.62 92.5331 21.764C92.9011 21.9 93.2651 21.968 93.6251 21.968C93.9451 21.968 94.1971 21.908 94.3811 21.788C94.5651 21.668 94.6571 21.496 94.6571 21.272C94.6571 21.048 94.5491 20.884 94.3331 20.78C94.1171 20.676 93.7651 20.556 93.2771 20.42C92.8691 20.308 92.5211 20.2 92.2331 20.096C91.9451 19.992 91.7131 19.876 91.5371 19.748C91.3611 19.612 91.2331 19.46 91.1531 19.292C91.0731 19.116 91.0331 18.908 91.0331 18.668C91.0331 18.348 91.0931 18.06 91.2131 17.804C91.3411 17.548 91.5171 17.332 91.7411 17.156C91.9651 16.972 92.2251 16.832 92.5211 16.736C92.8251 16.64 93.1531 16.592 93.5051 16.592C93.9771 16.592 94.4171 16.66 94.8251 16.796C95.2411 16.932 95.6211 17.152 95.9651 17.456L95.3171 18.428C94.9971 18.188 94.6851 18.012 94.3811 17.9C94.0851 17.788 93.7891 17.732 93.4931 17.732C93.2211 17.732 92.9931 17.788 92.8091 17.9C92.6251 18.012 92.5331 18.192 92.5331 18.44C92.5331 18.552 92.5531 18.644 92.5931 18.716C92.6411 18.788 92.7131 18.852 92.8091 18.908C92.9051 18.964 93.0291 19.02 93.1811 19.076C93.3411 19.124 93.5371 19.176 93.7691 19.232C94.2011 19.344 94.5691 19.456 94.8731 19.568C95.1851 19.68 95.4371 19.808 95.6291 19.952C95.8291 20.096 95.9731 20.264 96.0611 20.456C96.1571 20.64 96.2051 20.864 96.2051 21.128C96.2051 21.744 95.9771 22.232 95.5211 22.592C95.0651 22.944 94.4451 23.12 93.6611 23.12Z" fill="#F7F7F7"/>
</svg>
