<svg width="123" height="40" viewBox="0 0 123 40" fill="none" xmlns="http://www.w3.org/2000/svg">
<rect width="123" height="40" fill="#131D32"/>
<path d="M46.0146 16.1264C46.0146 16.0425 46.0196 15.954 46.0196 15.8748C46.0246 15.819 46.0246 15.7687 46.0296 15.713C46.0397 15.4849 46.0598 15.2568 46.0804 15.0291V14.9784C46.0955 14.8769 46.1055 14.7709 46.1156 14.6694C46.1206 14.6338 46.1206 14.6036 46.1257 14.5679C46.1462 14.4162 46.1676 14.2644 46.1915 14.1122C46.1911 14.1095 46.1914 14.1067 46.1923 14.1041C46.1932 14.1015 46.1946 14.0991 46.1965 14.0971C46.2322 13.8455 46.2779 13.594 46.3286 13.3474C46.3305 13.3455 46.3319 13.3431 46.3328 13.3405C46.3337 13.3378 46.334 13.3351 46.3336 13.3323C46.3537 13.2208 46.3789 13.1143 46.4045 13.0032C46.4753 12.7043 46.5512 12.4053 46.6372 12.1118C46.698 11.9089 46.7588 11.7064 46.8296 11.5039C46.8753 11.6406 46.921 11.7773 46.9717 11.9089C47.007 12.0054 47.0426 12.1014 47.0778 12.1928V12.1978C47.0833 12.2177 47.0919 12.2365 47.1034 12.2536C47.1135 12.2737 47.1185 12.2955 47.1285 12.3144C47.1793 12.451 47.2351 12.5827 47.2963 12.7143C47.3168 12.7697 47.3405 12.8239 47.3671 12.8766V12.8816C47.3735 12.8977 47.382 12.9129 47.3923 12.9269L47.3973 12.9319C47.3987 12.9521 47.4058 12.9714 47.4178 12.9877C47.4738 13.1143 47.5345 13.2409 47.6002 13.3676C47.6133 13.399 47.6284 13.4295 47.6455 13.459C47.6577 13.4852 47.6717 13.5106 47.6874 13.5349C47.718 13.6057 47.7533 13.6715 47.7889 13.7374C47.8342 13.8187 47.8797 13.8998 47.9256 13.9805C47.9454 14.0222 47.9674 14.0628 47.9914 14.1021C47.9864 14.1072 47.9914 14.1072 47.9914 14.1072C48.0115 14.1491 48.0371 14.1881 48.0623 14.2287C48.1461 14.391 48.2447 14.5478 48.3457 14.705C48.4623 14.8974 48.5838 15.0848 48.7105 15.2673C48.7343 15.2962 48.7563 15.3266 48.7763 15.3583C48.8928 15.526 49.0144 15.6937 49.136 15.8547C49.2425 15.9964 49.3536 16.1331 49.4651 16.2698C49.5209 16.341 49.5767 16.4119 49.6375 16.4794C49.6727 16.5247 49.7134 16.5704 49.754 16.6161C49.845 16.7276 49.9465 16.8387 50.0475 16.9515C50.0648 16.9729 50.0835 16.9932 50.1033 17.0123C50.2454 17.1695 50.3922 17.3213 50.5439 17.4735L61.4995 28.4341L72.4596 17.4735C72.6777 17.2559 72.8852 17.0328 73.0885 16.8102C73.2051 16.6785 73.3217 16.5419 73.4332 16.4052C73.4751 16.3595 73.5091 16.3138 73.5497 16.2681C73.6864 16.1004 73.8181 15.9289 73.9447 15.7566C73.9803 15.7058 74.0155 15.6606 74.0512 15.6098C74.117 15.5239 74.177 15.4325 74.2436 15.3415C74.2944 15.2706 74.3396 15.1994 74.3853 15.1285C74.4106 15.096 74.4343 15.0623 74.4562 15.0275C74.5879 14.8249 74.7195 14.617 74.8411 14.4095C74.9019 14.308 74.9576 14.212 75.0134 14.1105C75.0221 14.0902 75.034 14.0714 75.0486 14.0547C75.1044 13.9537 75.1551 13.8472 75.2109 13.7457C75.2817 13.6141 75.3476 13.4824 75.4134 13.3508C75.4266 13.3286 75.4369 13.3048 75.444 13.2799C75.4627 13.2453 75.4797 13.2098 75.4947 13.1734C75.5069 13.1543 75.517 13.1339 75.5249 13.1126C75.545 13.0707 75.5669 13.0368 75.5807 13.0015C75.6264 12.9051 75.6645 12.8141 75.7023 12.7177C75.7428 12.6372 75.7783 12.5543 75.8088 12.4695C75.8239 12.4393 75.8339 12.4137 75.8507 12.3835C75.8507 12.3785 75.8557 12.3735 75.8557 12.3684C75.9723 12.0796 76.0788 11.7957 76.1698 11.5073C76.2406 11.7098 76.3014 11.9123 76.3622 12.1152C76.4041 12.2519 76.4435 12.3886 76.4788 12.5252C76.514 12.6619 76.5547 12.8087 76.5853 12.9558C76.6255 13.1177 76.6609 13.2796 76.6913 13.4418C76.727 13.604 76.7576 13.7663 76.7827 13.9332C76.8079 14.1 76.8385 14.2627 76.8586 14.4296C76.8787 14.5663 76.8943 14.7084 76.9094 14.8451C76.9144 14.8958 76.9194 14.9411 76.9245 14.9918C76.9395 15.1335 76.95 15.2807 76.9601 15.4224V15.4274C76.9752 15.5792 76.9802 15.7264 76.9852 15.8782C76.9953 16.0878 77.0003 16.2886 77.0003 16.4962C77.0003 16.7897 76.9903 17.0886 76.9701 17.3825C76.7644 21.1824 75.1584 24.7713 72.4622 27.4567L61.5171 38.3968L61.502 38.4119L50.5465 27.4567C49.7423 26.6559 49.0306 25.7673 48.4245 24.8078C48.4245 24.8023 48.4195 24.7977 48.4195 24.7923C47.0019 22.5701 46.1819 20.0195 46.0389 17.3875C46.0091 16.962 45.999 16.5469 46.0146 16.1264Z" fill="url(#paint0_linear)"/>
<path d="M50.7622 5.33027C53.2973 2.88832 56.589 1.38344 60.0943 1.06392C63.5997 0.744396 67.1093 1.62933 70.044 3.57271C70.0642 3.58277 70.0797 3.59284 70.0897 3.59829C70.8578 4.10985 71.5782 4.68952 72.2423 5.33027L71.823 5.74954L61.501 16.0666L51.1232 5.69V5.68497L51.088 5.64937L50.7622 5.33027Z" fill="url(#paint1_linear)"/>
<path d="M46.8306 11.5101C47.3429 9.98619 48.0916 8.55225 49.0493 7.26081C49.1403 7.13922 49.2317 7.01763 49.3328 6.89604C49.4242 6.77949 49.5202 6.66293 49.6166 6.54637C49.8141 6.31871 50.0116 6.09062 50.2241 5.86757C50.3256 5.75647 50.4338 5.64997 50.5432 5.53845C50.6092 5.46591 50.6804 5.3982 50.7562 5.33594H50.7612L51.0853 5.655L51.1205 5.69064V5.69567L61.4987 16.0735L71.8207 5.75647L72.24 5.3372C72.3161 5.4008 72.3887 5.46843 72.4576 5.5397C74.1402 7.21553 75.4096 9.26006 76.1652 11.5114C76.0742 11.7998 75.9677 12.0837 75.8512 12.3726C75.8512 12.3776 75.8462 12.3826 75.8462 12.3876C75.8311 12.4178 75.821 12.4434 75.8042 12.4736C75.7738 12.5585 75.7383 12.6413 75.6977 12.7218C75.6167 12.9091 75.5306 13.0965 75.4395 13.284C75.3686 13.4409 75.2873 13.5981 75.2064 13.7499C75.0898 13.9729 74.9682 14.1955 74.8366 14.4136C74.715 14.6211 74.585 14.8291 74.4517 15.0316C74.4416 15.0416 74.4366 15.0567 74.4265 15.0668C74.3049 15.2542 74.175 15.4416 74.0366 15.629C74.006 15.6747 73.9758 15.7154 73.9402 15.7607C73.8035 15.9431 73.6618 16.1254 73.5209 16.3028L73.5108 16.3129C73.3741 16.4806 73.2323 16.6483 73.0853 16.816C72.8828 17.0386 72.6752 17.2617 72.4564 17.4793L61.4962 28.4398L50.5407 17.4793C49.2445 16.1849 48.1882 14.6707 47.4209 13.0073C47.4057 12.9861 47.3952 12.9618 47.3903 12.9361C47.38 12.9221 47.3716 12.9069 47.3651 12.8908V12.8857C47.3385 12.833 47.3148 12.7789 47.2943 12.7235C47.2335 12.5919 47.1777 12.4602 47.1266 12.3235C47.1068 12.286 47.0899 12.247 47.0758 12.2069V12.2019C47.0406 12.1105 47.005 12.0145 46.9698 11.9181C46.922 11.7835 46.8763 11.6468 46.8306 11.5101Z" fill="url(#paint2_linear)"/>
<g style="mix-blend-mode:multiply" opacity="0.06">
<g style="mix-blend-mode:multiply" opacity="0.06">
<path d="M61.4971 16.0721L72.2413 5.33203C72.3155 5.39576 72.3897 5.47001 72.4585 5.53877C72.9974 6.07448 73.4951 6.65009 73.9473 7.26072L61.4971 16.0721Z" fill="black"/>
</g>
</g>
<g style="mix-blend-mode:multiply" opacity="0.06">
<g style="mix-blend-mode:multiply" opacity="0.06">
<path d="M61.499 28.4406L72.4592 17.48C72.6772 17.2624 72.8847 17.0394 73.0881 16.8167C73.2046 16.6801 73.3212 16.5484 73.4327 16.4117C73.4746 16.366 73.5086 16.3203 73.5493 16.2746C73.686 16.1069 73.8176 15.9354 73.9442 15.7631C73.9799 15.7124 74.0151 15.6671 74.0507 15.6164C74.1166 15.5304 74.1824 15.439 74.2432 15.348C74.2939 15.2772 74.3392 15.2059 74.3849 15.1351C74.4102 15.1026 74.4339 15.0689 74.4557 15.034C74.5874 14.8315 74.719 14.6235 74.8406 14.416C74.9014 14.3196 74.9572 14.2185 75.013 14.1171C75.0217 14.0967 75.0336 14.0779 75.0482 14.0613C75.1039 13.9603 75.1597 13.8538 75.2104 13.7523C75.2813 13.6206 75.3471 13.489 75.4129 13.3573C75.4261 13.3351 75.4364 13.3113 75.4435 13.2865C75.4623 13.2519 75.4793 13.2163 75.4943 13.18C75.5064 13.1608 75.5165 13.1405 75.5245 13.1192C75.5853 12.9876 75.646 12.8559 75.7018 12.7242C75.7424 12.6437 75.7779 12.5609 75.8083 12.476C75.94 12.157 76.0599 11.8379 76.1676 11.5117C76.2385 11.7142 76.2993 11.9167 76.3601 12.1197C76.402 12.2563 76.4414 12.393 76.4766 12.5297C76.5118 12.6664 76.5525 12.8131 76.5831 12.9603C76.6234 13.1221 76.6588 13.2841 76.6892 13.4462C76.7248 13.6085 76.7554 13.7707 76.7806 13.9376C76.8058 14.1045 76.8364 14.2672 76.8565 14.434C76.8766 14.5707 76.8921 14.7128 76.9072 14.8495C76.9122 14.9003 76.9173 14.9455 76.9223 14.9963C76.9374 15.138 76.9479 15.2852 76.9579 15.4269V15.4319C76.973 15.5837 76.9781 15.7308 76.9831 15.8826C76.9932 16.0922 76.9982 16.2931 76.9982 16.5006C76.9982 16.7941 76.9881 17.093 76.968 17.387L76.8003 17.5085L63.6973 26.8704L61.499 28.4406Z" fill="black"/>
</g>
</g>
<g style="mix-blend-mode:multiply" opacity="0.06">
<g style="mix-blend-mode:multiply" opacity="0.06">
<path d="M49.0488 7.26471C49.1398 7.14313 49.2312 7.02154 49.3323 6.89995C49.4237 6.78339 49.5197 6.66684 49.6161 6.55028C49.8136 6.32261 50.0111 6.09453 50.2236 5.87148C50.3251 5.76037 50.4332 5.64885 50.5376 5.54235H50.5427C50.6087 5.46978 50.6799 5.40211 50.7557 5.33984H50.7607L51.115 5.69958C51.115 5.69455 51.12 5.69958 51.12 5.69958C51.1272 5.71073 51.1358 5.72088 51.1456 5.72977L61.4982 16.0774L59.4065 14.5986L49.4589 7.55485L49.0488 7.26471Z" fill="black"/>
</g>
</g>
<g style="mix-blend-mode:multiply" opacity="0.06">
<g style="mix-blend-mode:multiply" opacity="0.06">
<path d="M46.4075 13.0094C46.4763 12.7113 46.5509 12.414 46.6377 12.1197C46.6985 11.9167 46.7593 11.7142 46.8302 11.5117C46.8759 11.6484 46.9216 11.7851 46.9723 11.9167C47.0075 12.0132 47.0432 12.1092 47.0834 12.2006C47.0939 12.2425 47.114 12.2815 47.1291 12.3222C47.1798 12.4589 47.2356 12.5905 47.2968 12.7222C47.3174 12.7775 47.341 12.8317 47.3677 12.8844C47.3729 12.9026 47.3815 12.9196 47.3928 12.9347C47.3977 12.9604 47.4082 12.9847 47.4234 13.006C48.1919 14.6675 49.2461 16.1811 50.5382 17.4779H50.5432L61.4988 28.4385L59.3257 26.8834L46.3748 17.6352L46.0356 17.392L46.0306 17.387C46.0101 17.0935 46 16.7945 46 16.5006C46 16.379 46.0105 16.2574 46.0134 16.1359C46.0134 16.052 46.0193 15.9681 46.0226 15.8814C46.0344 15.5879 46.0537 15.2986 46.0822 15.0072C46.096 14.8629 46.1107 14.7191 46.1287 14.5753C46.148 14.4236 46.1669 14.2718 46.1908 14.1204C46.2327 13.8601 46.2788 13.6009 46.3325 13.3423C46.3555 13.2328 46.3815 13.1221 46.4075 13.0094Z" fill="black"/>
</g>
</g>
<g style="mix-blend-mode:multiply" opacity="0.14">
<g style="mix-blend-mode:multiply" opacity="0.14">
<path d="M51.083 5.65234L61.4989 16.0683L71.8193 5.75423C71.0298 6.68668 70.2034 7.5768 69.393 8.48787C68.5716 9.38343 67.7452 10.279 66.9084 11.1582C66.0765 12.0483 65.2233 12.917 64.381 13.7912L61.8168 16.3873L61.4989 16.7106L61.1811 16.3873L58.5955 13.7648C57.7427 12.8801 56.8845 12.006 56.0421 11.1108C55.1998 10.2157 54.3625 9.3197 53.5307 8.41408C52.7203 7.4963 51.883 6.59528 51.083 5.65234Z" fill="black"/>
</g>
</g>
<g style="mix-blend-mode:multiply" opacity="0.14">
<g style="mix-blend-mode:multiply" opacity="0.14">
<path d="M47.3687 12.8981C48.1406 14.6066 49.2158 16.161 50.5421 17.4862L61.4985 28.4476L72.4599 17.4862C73.9173 16.0322 75.0685 14.3009 75.8455 12.3945C75.2412 14.1126 74.3251 15.7045 73.1433 17.0904C72.8469 17.44 72.5236 17.7683 72.2163 18.0966L71.2893 19.0819L69.4084 21.037C66.9079 23.6364 64.3646 26.2078 61.8163 28.7666L61.4985 29.0844L61.1807 28.7666L57.4668 25.0158C56.2429 23.7547 55.0032 22.5044 53.7898 21.2277L51.9605 19.3242L51.0544 18.3654C50.7576 18.0421 50.4453 17.7243 50.1484 17.401C48.96 16.0783 48.0185 14.5532 47.3687 12.8981Z" fill="black"/>
</g>
</g>
<g style="mix-blend-mode:screen" opacity="0.3">
<g style="mix-blend-mode:screen" opacity="0.3">
<path d="M51.083 5.65234C52.0259 6.45231 52.9278 7.2875 53.8431 8.10004C54.749 8.93188 55.6479 9.76904 56.5398 10.6115C57.4354 11.4538 58.3096 12.312 59.1943 13.1648L61.5002 15.4377L63.7781 13.1862C64.6586 12.3439 65.5214 11.4907 66.4115 10.6643C67.2962 9.82199 68.1863 9.00064 69.0869 8.17426C69.998 7.36884 70.8898 6.54245 71.8205 5.75297L61.5002 16.067L51.083 5.65234Z" fill="white"/>
</g>
</g>
<g style="mix-blend-mode:screen" opacity="0.3">
<g style="mix-blend-mode:screen" opacity="0.3">
<path d="M47.3687 12.8981C48.1647 14.4559 49.2098 15.8733 50.4629 17.0941C51.7341 18.3021 53.0204 19.51 54.2824 20.7338C55.5541 21.9522 56.8043 23.1866 58.0655 24.4159L61.4985 27.817C63.9512 25.3693 66.4218 22.9428 68.9103 20.5376L70.8654 18.6568C71.5169 18.0371 72.1949 17.4224 72.815 16.7918C74.065 15.5067 75.0895 14.0201 75.8455 12.3945C75.0685 14.3009 73.9173 16.0322 72.4599 17.4862L61.4985 28.4476L50.5421 17.4862C49.2158 16.161 48.1406 14.6066 47.3687 12.8981Z" fill="white"/>
</g>
</g>
<g style="mix-blend-mode:screen" opacity="0.5">
<g style="mix-blend-mode:screen" opacity="0.5">
<path d="M61.5132 38.3986C61.6448 38.2363 62.7592 36.8993 64.4711 35.0356C65.3776 34.0327 66.4513 32.8881 67.6156 31.6672C68.2026 31.0647 68.7955 30.4316 69.4185 29.8035C70.0416 29.1755 70.6763 28.5323 71.3027 27.8942C71.6168 27.5801 71.956 27.2607 72.2499 26.9571C72.574 26.633 72.8477 26.319 73.1211 25.9928C73.6623 25.35 74.1502 24.664 74.5798 23.9417C75.3489 22.6554 75.9385 21.2701 76.3323 19.8241C76.5147 19.1859 76.6207 18.583 76.7222 18.0514C76.7528 17.8585 76.7779 17.6766 76.7981 17.5063C76.8386 17.1922 76.8691 16.9085 76.8895 16.6552C76.9197 16.2754 76.9247 15.9563 76.9398 15.7488C76.9503 15.5664 76.9553 15.4553 76.9553 15.4297C76.9704 15.5815 76.9754 15.7286 76.9805 15.8804C76.9905 16.09 76.9956 16.2909 76.9956 16.4984C76.9956 16.7919 76.9855 17.0908 76.9654 17.3847C76.7597 21.1846 75.1537 24.7736 72.4574 27.459L61.5132 38.3986Z" fill="white"/>
</g>
</g>
<g style="mix-blend-mode:multiply" opacity="0.2">
<g style="mix-blend-mode:multiply" opacity="0.2">
<path d="M46.408 13.0021C46.4767 12.704 46.5513 12.4067 46.6381 12.1124C46.6989 11.9095 46.7597 11.707 46.8306 11.5045C47.3429 9.98049 48.0917 8.54655 49.0494 7.25515C49.1403 7.13356 49.2317 7.01197 49.3328 6.89038C49.4242 6.77383 49.5202 6.65727 49.6166 6.54071C49.8141 6.31305 50.0116 6.08497 50.2242 5.86191C50.3256 5.75081 50.4338 5.63928 50.5382 5.53279H50.5432C50.6092 5.46021 50.6804 5.39254 50.7562 5.33028H50.7612C53.2963 2.88832 56.588 1.38344 60.0934 1.06392C63.5987 0.744397 67.1083 1.62932 70.0431 3.5727C69.9772 3.53748 69.8707 3.47668 69.7391 3.40079C69.4657 3.2486 69.0607 3.0461 68.5387 2.79789C67.0991 2.14083 65.5696 1.70205 64.0005 1.49605C61.8066 1.20191 59.5752 1.37335 57.452 1.99918C56.2658 2.35277 55.1252 2.844 54.0533 3.46285C52.992 4.08358 52.0092 4.82964 51.126 5.68498C51.126 5.68498 51.1206 5.67995 51.1206 5.68498V5.69001C51.1206 5.69001 51.1155 5.68498 51.1155 5.69001C51.0803 5.7202 51.0497 5.75584 51.0145 5.78603C50.4503 6.32965 49.9303 6.91739 49.4594 7.54361C49.1674 7.93139 48.8952 8.33372 48.6439 8.74901C47.9966 9.80553 47.4797 10.9366 47.1044 12.1174C47.0953 12.1421 47.0885 12.1675 47.0838 12.1933H47.0788V12.1984C46.745 13.2802 46.5244 14.3937 46.4205 15.5211C46.3579 16.2215 46.3426 16.9254 46.3748 17.6279C46.3903 17.9772 46.4205 18.3218 46.4562 18.6509C46.6206 20.2255 47.0218 21.7662 47.6461 23.221C47.8892 23.743 48.0716 24.158 48.2238 24.4264C48.3148 24.5987 48.3806 24.7253 48.4163 24.7911C46.9987 22.5689 46.1787 20.0184 46.0356 17.3864L46.0306 17.3814C46.0101 17.0879 46 16.7889 46 16.495C46 16.3734 46.0105 16.2519 46.0134 16.1303C46.0134 16.0464 46.0193 15.9626 46.0226 15.8758C46.0344 15.5823 46.0537 15.293 46.0822 15.0016C46.096 14.8574 46.1107 14.7136 46.1287 14.5697C46.148 14.418 46.1669 14.2662 46.1908 14.1148C46.2327 13.8545 46.2788 13.5954 46.3325 13.3367C46.356 13.2256 46.382 13.1149 46.408 13.0021Z" fill="black"/>
</g>
</g>
<path d="M67.7582 19.707V23.729H61.0294C60.9482 23.7281 60.8675 23.7432 60.7922 23.7736C60.7169 23.8041 60.6483 23.8491 60.5905 23.9061C60.5434 23.9527 60.505 24.0073 60.4771 24.0673C60.5396 23.0485 60.9257 22.0762 61.5791 21.292C62.2324 20.5078 63.119 19.9525 64.1097 19.707H67.7582Z" fill="url(#paint3_linear)"/>
<path d="M64.2326 29.8594C64.1771 30.8833 63.7951 31.8625 63.1425 32.6535C62.4899 33.4445 61.6012 34.0057 60.6065 34.2548H57.1255V30.2337H63.6611C63.7443 30.2348 63.8268 30.219 63.9037 30.1874C63.9773 30.1574 64.0441 30.1129 64.1001 30.0565C64.1564 29.9998 64.2013 29.9329 64.2326 29.8594Z" fill="url(#paint4_linear)"/>
<path d="M68.3006 29.6096C68.3035 30.2299 68.1796 30.8442 67.9366 31.4149C67.8871 31.5298 67.8329 31.643 67.7739 31.7532C67.7723 31.7579 67.7706 31.7596 67.7706 31.7627C67.77 31.7651 67.7689 31.7673 67.7674 31.7692C67.2675 32.7143 66.4577 33.4587 65.474 33.8775C64.902 34.1241 64.2852 34.2496 63.6624 34.2461H60.6092L60.6443 34.2367C61.6307 33.9813 62.5103 33.4187 63.1556 32.6302C63.801 31.8417 64.1786 30.8682 64.2338 29.8507V29.8491C64.2922 29.6972 64.2933 29.5293 64.237 29.3767C64.2355 29.3735 64.2338 29.3687 64.2322 29.3655C64.2018 29.2922 64.1573 29.2255 64.1013 29.1692C64.0439 29.1117 63.9753 29.0665 63.8999 29.0363C63.8244 29.0061 63.7436 28.9916 63.6624 28.9935H61.0306C60.8997 28.9935 60.7689 28.9889 60.6395 28.9761C60.6348 28.9761 60.63 28.9744 60.6237 28.9744C60.1403 28.9361 59.6666 28.8175 59.2222 28.6234C58.1163 28.1474 57.2358 27.2646 56.7627 26.1575C56.7004 26.0148 56.6461 25.8689 56.5999 25.7203C56.4618 25.2753 56.3924 24.8118 56.3941 24.3459C56.3913 23.7242 56.5168 23.1086 56.7627 22.5376C57.2386 21.4339 58.1185 20.554 59.2222 20.0782C59.5443 19.9372 59.8826 19.8364 60.2294 19.7782C60.2422 19.7748 60.2517 19.7733 60.258 19.7716C60.2612 19.7708 60.2644 19.7703 60.2677 19.7702C60.5198 19.728 60.775 19.7069 61.0306 19.707H64.111C63.1202 19.9525 62.2336 20.5078 61.5803 21.292C60.9269 22.0762 60.5409 23.0485 60.4783 24.0673C60.4716 24.0791 60.4657 24.0914 60.4608 24.1041C60.4293 24.1805 60.4136 24.2624 60.4145 24.345C60.4136 24.4315 60.4299 24.5173 60.4623 24.5975C60.4657 24.6064 60.47 24.615 60.4751 24.623C60.5026 24.6869 60.5422 24.7449 60.5917 24.7938C60.6493 24.8512 60.7178 24.8964 60.7932 24.9268C60.8686 24.9573 60.9493 24.9723 61.0306 24.971H63.6624C64.2839 24.9677 64.8996 25.091 65.4719 25.3333C66.5847 25.8011 67.4698 26.6863 67.9376 27.7991C67.9995 27.9433 68.0533 28.0908 68.099 28.2409C68.2342 28.6845 68.3021 29.1459 68.3006 29.6096Z" fill="url(#paint5_linear)"/>
<g style="mix-blend-mode:multiply" opacity="0.16">
<g style="mix-blend-mode:multiply" opacity="0.16">
<path d="M64.2332 29.8516C64.1777 30.8755 63.7957 31.8547 63.1431 32.6457C62.4906 33.4367 61.6018 33.9979 60.6071 34.247H59.6367C60.451 33.8637 61.1699 33.3042 61.7413 32.6088C62.3126 31.9134 62.7221 31.0997 62.9401 30.2265H63.6614C63.7445 30.2276 63.8271 30.2118 63.904 30.1802C63.9775 30.1502 64.0443 30.1057 64.1003 30.0493C64.1568 29.9925 64.2019 29.9254 64.2332 29.8516Z" fill="black"/>
</g>
</g>
<g style="mix-blend-mode:multiply" opacity="0.16">
<g style="mix-blend-mode:multiply" opacity="0.16">
<path d="M64.9844 19.707C64.0857 20.3757 62.2615 21.919 61.8018 23.729H61.0294C60.9482 23.7281 60.8675 23.7432 60.7922 23.7736C60.7169 23.8041 60.6483 23.8491 60.5905 23.9061C60.5434 23.9527 60.505 24.0073 60.4771 24.0673C60.5396 23.0485 60.9257 22.0762 61.5791 21.292C62.2324 20.5078 63.119 19.9525 64.1097 19.707H64.9844Z" fill="black"/>
</g>
</g>
<g style="mix-blend-mode:multiply" opacity="0.25">
<g style="mix-blend-mode:multiply" opacity="0.25">
<path d="M67.7607 20.9023V23.7218H62.1411C62.6086 23.6755 63.0778 23.6437 63.5456 23.6212C64.0133 23.5987 64.4825 23.5791 64.95 23.5718C65.4193 23.5575 65.887 23.5592 66.3562 23.5543C66.777 23.5592 67.194 23.5592 67.614 23.5686C67.6186 23.3851 67.622 23.2015 67.6298 23.0165C67.6378 22.7817 67.6458 22.5471 67.6603 22.3125C67.6834 21.8424 67.7144 21.3716 67.7607 20.9023Z" fill="black"/>
</g>
</g>
<g style="mix-blend-mode:screen" opacity="0.7">
<g style="mix-blend-mode:screen" opacity="0.7">
<path d="M68.2991 29.6224C68.302 30.2427 68.1781 30.857 67.9351 31.4277C67.8856 31.5426 67.8313 31.6558 67.7724 31.7661C67.7884 31.7229 67.841 31.5855 67.9197 31.3749C68.0416 31.0167 68.1214 30.6456 68.1575 30.269C68.1802 30.0196 68.1851 29.7688 68.172 29.5187C68.156 29.2421 68.1176 28.9672 68.0571 28.6969C68.0258 28.557 67.9869 28.419 67.9405 28.2834C67.8863 28.1431 67.832 28.0008 67.7777 27.8588C67.6559 27.5795 67.5061 27.3133 67.3308 27.0641C67.16 26.8116 66.9624 26.5783 66.7416 26.3681C66.529 26.1641 66.2982 25.9798 66.0521 25.8176C65.8188 25.6661 65.5738 25.5332 65.3195 25.4202C65.0905 25.3216 64.8541 25.241 64.6125 25.179C64.2449 25.0879 63.8689 25.0339 63.4904 25.0179C63.2127 24.9969 63.0547 24.9844 63.0547 24.9844H63.6596C64.2811 24.9811 64.8968 25.1044 65.4691 25.3468C66.5819 25.8146 67.4671 26.6997 67.9349 27.8125C67.9967 27.9567 68.0505 28.1042 68.0962 28.2544C68.2318 28.6977 68.3001 29.1588 68.2991 29.6224Z" fill="white"/>
</g>
</g>
<g style="mix-blend-mode:multiply" opacity="0.25">
<g style="mix-blend-mode:multiply" opacity="0.25">
<path d="M60.1031 34.2474H57.125V31.207C57.1616 31.4608 57.1839 31.712 57.2079 31.9668C57.227 32.2206 57.2447 32.4743 57.2559 32.7264C57.2719 32.9801 57.275 33.2341 57.2845 33.4878L57.291 34.0814C57.484 34.0846 57.6771 34.0846 57.8703 34.0894C58.1177 34.0991 58.3651 34.1022 58.614 34.1182C59.1104 34.1422 59.6067 34.1788 60.1031 34.2474Z" fill="black"/>
</g>
</g>
<g style="mix-blend-mode:screen" opacity="0.7">
<g style="mix-blend-mode:screen" opacity="0.7">
<path d="M60.6227 28.9736C60.1393 28.9353 59.6656 28.8167 59.2212 28.6226C58.1154 28.1466 57.2348 27.2637 56.7617 26.1567C56.6994 26.014 56.6451 25.8681 56.5989 25.7194C56.4608 25.2745 56.3914 24.811 56.3931 24.3451C56.3903 23.7234 56.5158 23.1078 56.7617 22.5368C57.2376 21.4331 58.1175 20.5532 59.2212 20.0774C59.5433 19.9363 59.8816 19.8356 60.2284 19.7773C60.0544 19.8192 59.8829 19.8703 59.7144 19.9305C58.5715 20.3387 57.6259 21.1651 57.0683 22.2431C56.6996 22.951 56.526 23.7442 56.5654 24.5414C56.5778 24.9419 56.6472 25.3387 56.7714 25.7197C56.808 25.8169 56.8432 25.9143 56.8783 26.01L56.9038 26.0818L56.9103 26.0994C56.9118 26.1024 56.9128 26.1056 56.9134 26.1089L56.9294 26.144L56.99 26.2798C57.0706 26.4554 57.1629 26.6255 57.2661 26.7889C57.4618 27.1001 57.6927 27.3876 57.9541 27.6459C58.1914 27.8771 58.4512 28.0841 58.7297 28.2637C58.9674 28.4145 59.2166 28.5463 59.4751 28.6578C59.6769 28.7436 59.885 28.8135 60.0975 28.8669C60.2707 28.9113 60.446 28.9469 60.6227 28.9736Z" fill="white"/>
</g>
</g>
<g style="mix-blend-mode:screen" opacity="0.7">
<g style="mix-blend-mode:screen" opacity="0.7">
<path d="M64.1101 19.707C63.1194 19.9525 62.2328 20.5078 61.5794 21.292C60.9261 22.0762 60.54 23.0485 60.4774 24.0673C60.4707 24.0791 60.4648 24.0914 60.46 24.1041L60.4728 24.0641C60.468 23.9379 60.468 23.8104 60.468 23.6827C60.4774 23.5552 60.4917 23.4274 60.5046 23.298C60.5256 23.1718 60.554 23.0456 60.578 22.9193C60.61 22.7931 60.6531 22.6719 60.6897 22.5458C60.7318 22.423 60.784 22.3047 60.8349 22.1835C60.8892 22.0655 60.9532 21.9521 61.0106 21.8355C61.0775 21.7223 61.1509 21.6154 61.221 21.5037C61.2976 21.3985 61.3773 21.2945 61.4573 21.1923C61.5433 21.0934 61.6345 20.9993 61.7222 20.9034C61.8179 20.8142 61.9116 20.7248 62.0111 20.6385L62.3223 20.4007C62.4308 20.329 62.5409 20.2619 62.6526 20.1933C62.7692 20.1358 62.8826 20.0736 62.9989 20.0176L63.3598 19.8772C63.486 19.8404 63.6087 19.8038 63.7333 19.772C63.8578 19.7468 63.9841 19.7262 64.1101 19.707Z" fill="white"/>
</g>
</g>
<g style="mix-blend-mode:screen" opacity="0.7">
<g style="mix-blend-mode:screen" opacity="0.7">
<path d="M64.2614 29.8451C64.2628 29.976 64.2628 30.1037 64.2597 30.2329C64.2517 30.3623 64.2357 30.49 64.2214 30.6192C64.1991 30.7469 64.1736 30.8746 64.1448 31.0024C64.1128 31.1286 64.0714 31.253 64.0345 31.3773C63.9925 31.5019 63.9373 31.6199 63.8873 31.7413C63.8332 31.861 63.7709 31.9759 63.7101 32.0925C63.6447 32.2057 63.5714 32.3142 63.5012 32.426C63.4246 32.5329 63.3446 32.6364 63.2649 32.7403C63.1788 32.8394 63.0877 32.9352 63 33.0324C62.9042 33.1235 62.8106 33.2129 62.7111 33.3006L62.3997 33.5401C62.2911 33.6119 62.181 33.682 62.0693 33.7505L61.723 33.9308L61.3607 34.076L60.9887 34.1846C60.893 34.2037 60.7993 34.2228 60.7046 34.2388L60.7257 34.242L60.6154 34.2548C60.614 34.2565 60.6106 34.2565 60.6091 34.2565L60.6074 34.242L60.606 34.2277L60.6426 34.2325C61.629 33.9772 62.5086 33.4145 63.1539 32.626C63.7993 31.8375 64.1769 30.864 64.2321 29.8466V29.8449C64.2631 29.769 64.2783 29.6875 64.2767 29.6055C64.2883 29.6855 64.283 29.7672 64.2614 29.8451Z" fill="white"/>
</g>
</g>
<defs>
<linearGradient id="paint0_linear" x1="-414.301" y1="369.245" x2="-414.301" y2="389.211" gradientUnits="userSpaceOnUse">
<stop stop-color="#B3CAE3"/>
<stop offset="0.247" stop-color="#355881"/>
<stop offset="0.75" stop-color="#1F324E"/>
<stop offset="1" stop-color="#131D32"/>
</linearGradient>
<linearGradient id="paint1_linear" x1="-414.237" y1="391.6" x2="-414.237" y2="405.537" gradientUnits="userSpaceOnUse">
<stop stop-color="#0388EF"/>
<stop offset="0.017" stop-color="#009BBC"/>
<stop offset="0.19" stop-color="#00BAD4"/>
<stop offset="0.371" stop-color="#00D3E7"/>
<stop offset="0.56" stop-color="#00E5F4"/>
<stop offset="0.762" stop-color="#00EFFC"/>
<stop offset="1" stop-color="#00F3FF"/>
</linearGradient>
<linearGradient id="paint2_linear" x1="-414.221" y1="379.504" x2="-414.221" y2="396.393" gradientUnits="userSpaceOnUse">
<stop stop-color="#B0E1FD"/>
<stop offset="0.04" stop-color="#0388EF"/>
<stop offset="0.35" stop-color="#0388EF"/>
<stop offset="0.625" stop-color="#0388EF"/>
<stop offset="0.851" stop-color="#0388EF"/>
<stop offset="1" stop-color="#0388EF"/>
</linearGradient>
<linearGradient id="paint3_linear" x1="67.7582" y1="21.8872" x2="60.7756" y2="21.8872" gradientUnits="userSpaceOnUse">
<stop stop-color="#A7CEF9"/>
<stop offset="0.322" stop-color="#A6DCFC"/>
<stop offset="1" stop-color="#82A9F5"/>
</linearGradient>
<linearGradient id="paint4_linear" x1="56.8483" y1="32.0571" x2="63.5574" y2="32.0571" gradientUnits="userSpaceOnUse">
<stop stop-color="#1077CA"/>
<stop offset="0.322" stop-color="#0388EF"/>
<stop offset="1" stop-color="#0270BF"/>
</linearGradient>
<linearGradient id="paint5_linear" x1="62.3473" y1="19.5907" x2="62.3473" y2="34.6388" gradientUnits="userSpaceOnUse">
<stop stop-color="#A7D5FB"/>
<stop offset="0.162" stop-color="#CAE8FE"/>
<stop offset="0.307" stop-color="#B0E1FD"/>
<stop offset="0.446" stop-color="#6DBCFC"/>
<stop offset="0.581" stop-color="#5DBCFD"/>
<stop offset="0.712" stop-color="#259CFC"/>
<stop offset="0.842" stop-color="#0388EF"/>
<stop offset="0.967" stop-color="#0270BF"/>
<stop offset="1" stop-color="#F80300"/>
</linearGradient>
</defs>
</svg>
