<svg width="40" height="40" viewBox="0 0 40 40" fill="none" xmlns="http://www.w3.org/2000/svg">
<g clip-path="url(#clip0)">
<line x1="5" y1="36.5" x2="35" y2="36.5" stroke="black" stroke-width="3"/>
<line x1="5" y1="30.5" x2="35" y2="30.5" stroke="black" stroke-width="3"/>
<circle cx="19.5" cy="14.5" r="12" stroke="black" stroke-width="3"/>
<path d="M13.475 18.475C14.275 18.9917 15.0833 19.375 15.9 19.625C16.7333 19.875 17.55 20 18.35 20C19.15 20 19.7917 19.8167 20.275 19.45C20.775 19.0833 21.025 18.6083 21.025 18.025C21.025 17.5417 20.825 17.1667 20.425 16.9C20.0417 16.6167 19.55 16.3667 18.95 16.15C18.3667 15.9333 17.7333 15.7167 17.05 15.5C16.3667 15.2667 15.725 14.9667 15.125 14.6C14.5417 14.2167 14.05 13.7167 13.65 13.1C13.2667 12.4833 13.075 11.675 13.075 10.675C13.075 9.90833 13.2333 9.20833 13.55 8.575C13.8667 7.94167 14.3083 7.4 14.875 6.95C15.4417 6.48333 16.1167 6.125 16.9 5.875C17.7 5.625 18.575 5.5 19.525 5.5C20.325 5.5 21.1167 5.575 21.9 5.725C22.7 5.875 23.5 6.10833 24.3 6.425V10.075C23.55 9.64167 22.8 9.325 22.05 9.125C21.3 8.90833 20.5583 8.8 19.825 8.8C19.0583 8.8 18.4333 8.96667 17.95 9.3C17.4833 9.63333 17.25 10.075 17.25 10.625C17.25 11.0917 17.4417 11.4583 17.825 11.725C18.225 11.9917 18.7167 12.2333 19.3 12.45C19.8833 12.65 20.5167 12.8667 21.2 13.1C21.9 13.3167 22.5417 13.6167 23.125 14C23.7083 14.3833 24.1917 14.8917 24.575 15.525C24.975 16.1417 25.175 16.9583 25.175 17.975C25.175 18.7583 25.0083 19.4833 24.675 20.15C24.3583 20.8 23.9083 21.3583 23.325 21.825C22.7583 22.2917 22.075 22.6583 21.275 22.925C20.475 23.175 19.6 23.3 18.65 23.3C16.9 23.3 15.175 22.925 13.475 22.175V18.475Z" fill="black"/>
</g>
<defs>
<clipPath id="clip0">
<rect width="40" height="40" fill="white"/>
</clipPath>
</defs>
</svg>
