<svg width="200" height="206" viewBox="0 0 200 206" fill="none" xmlns="http://www.w3.org/2000/svg">
<rect width="200" height="205.776" fill="#D0F1FB"/>
<path d="M53.6101 87.906C54.9665 87.906 56.2674 87.3671 57.2265 86.408C58.1856 85.4489 58.7244 84.148 58.7244 82.7916V67.4487C58.7244 66.0923 59.2633 64.7914 60.2224 63.8323C61.1815 62.8732 62.4823 62.3344 63.8387 62.3344H79.1817C80.5381 62.3344 81.839 61.7955 82.7981 60.8364C83.7572 59.8773 84.296 58.5764 84.296 57.22C84.296 55.8636 83.7572 54.5628 82.7981 53.6037C81.839 52.6445 80.5381 52.1057 79.1817 52.1057H63.8387C59.7695 52.1057 55.867 53.7222 52.9896 56.5996C50.1123 59.4769 48.4958 63.3795 48.4958 67.4487V82.7916C48.4958 84.148 49.0346 85.4489 49.9937 86.408C50.9529 87.3671 52.2537 87.906 53.6101 87.906ZM79.1817 144.163H63.8387C62.4823 144.163 61.1815 143.625 60.2224 142.666C59.2633 141.706 58.7244 140.406 58.7244 139.049V123.706C58.7244 122.35 58.1856 121.049 57.2265 120.09C56.2674 119.131 54.9665 118.592 53.6101 118.592C52.2537 118.592 50.9529 119.131 49.9937 120.09C49.0346 121.049 48.4958 122.35 48.4958 123.706V139.049C48.4958 143.118 50.1123 147.021 52.9896 149.898C55.867 152.776 59.7695 154.392 63.8387 154.392H79.1817C80.5381 154.392 81.839 153.853 82.7981 152.894C83.7572 151.935 84.296 150.634 84.296 149.278C84.296 147.921 83.7572 146.621 82.7981 145.661C81.839 144.702 80.5381 144.163 79.1817 144.163V144.163ZM125.211 108.363C126.567 108.363 127.868 107.824 128.827 106.865C129.786 105.906 130.325 104.605 130.325 103.249C130.325 101.893 129.786 100.592 128.827 99.6325C127.868 98.6734 126.567 98.1346 125.211 98.1346H119.38C118.462 94.6167 116.623 91.4071 114.052 88.8361C111.481 86.2652 108.271 84.426 104.753 83.5076V77.6773C104.753 76.3209 104.214 75.0201 103.255 74.0609C102.296 73.1018 100.995 72.563 99.639 72.563C98.2826 72.563 96.9817 73.1018 96.0226 74.0609C95.0635 75.0201 94.5247 76.3209 94.5247 77.6773V83.5076C91.0067 84.426 87.7971 86.2652 85.2262 88.8361C82.6553 91.4071 80.816 94.6167 79.8977 98.1346H74.0674C72.711 98.1346 71.4101 98.6734 70.451 99.6325C69.4919 100.592 68.9531 101.893 68.9531 103.249C68.9531 104.605 69.4919 105.906 70.451 106.865C71.4101 107.824 72.711 108.363 74.0674 108.363H79.8977C80.816 111.881 82.6553 115.091 85.2262 117.662C87.7971 120.233 91.0067 122.072 94.5247 122.99V128.821C94.5247 130.177 95.0635 131.478 96.0226 132.437C96.9817 133.396 98.2826 133.935 99.639 133.935C100.995 133.935 102.296 133.396 103.255 132.437C104.214 131.478 104.753 130.177 104.753 128.821V122.99C108.271 122.072 111.481 120.233 114.052 117.662C116.623 115.091 118.462 111.881 119.38 108.363H125.211ZM99.639 113.478C97.616 113.478 95.6384 112.878 93.9563 111.754C92.2742 110.63 90.9631 109.032 90.189 107.163C89.4148 105.294 89.2122 103.238 89.6069 101.253C90.0016 99.2692 90.9758 97.4467 92.4063 96.0162C93.8368 94.5857 95.6593 93.6115 97.6435 93.2168C99.6276 92.8221 101.684 93.0247 103.553 93.7989C105.422 94.5731 107.02 95.8841 108.144 97.5662C109.268 99.2483 109.868 101.226 109.868 103.249C109.868 105.962 108.79 108.563 106.872 110.482C104.953 112.4 102.352 113.478 99.639 113.478ZM145.668 118.592C144.311 118.592 143.011 119.131 142.051 120.09C141.092 121.049 140.554 122.35 140.554 123.706V139.049C140.554 140.406 140.015 141.706 139.056 142.666C138.096 143.625 136.796 144.163 135.439 144.163H120.096C118.74 144.163 117.439 144.702 116.48 145.661C115.521 146.621 114.982 147.921 114.982 149.278C114.982 150.634 115.521 151.935 116.48 152.894C117.439 153.853 118.74 154.392 120.096 154.392H135.439C139.508 154.392 143.411 152.776 146.288 149.898C149.166 147.021 150.782 143.118 150.782 139.049V123.706C150.782 122.35 150.243 121.049 149.284 120.09C148.325 119.131 147.024 118.592 145.668 118.592ZM135.439 52.1057H120.096C118.74 52.1057 117.439 52.6445 116.48 53.6037C115.521 54.5628 114.982 55.8636 114.982 57.22C114.982 58.5764 115.521 59.8773 116.48 60.8364C117.439 61.7955 118.74 62.3344 120.096 62.3344H135.439C136.796 62.3344 138.096 62.8732 139.056 63.8323C140.015 64.7914 140.554 66.0923 140.554 67.4487V82.7916C140.554 84.148 141.092 85.4489 142.051 86.408C143.011 87.3671 144.311 87.906 145.668 87.906C147.024 87.906 148.325 87.3671 149.284 86.408C150.243 85.4489 150.782 84.148 150.782 82.7916V67.4487C150.782 63.3795 149.166 59.4769 146.288 56.5996C143.411 53.7222 139.508 52.1057 135.439 52.1057Z" fill="#55ACEE"/>
</svg>
