<svg width="200" height="206" viewBox="0 0 200 206" fill="none" xmlns="http://www.w3.org/2000/svg">
<rect width="200" height="205.776" fill="#FAD5D9"/>
<g clip-path="url(#clip0)">
<path d="M149.867 74.7727C148.261 71.0525 145.944 67.6812 143.047 64.8477C140.148 62.0057 136.73 59.7473 132.978 58.1951C129.088 56.5792 124.916 55.7521 120.704 55.7618C114.794 55.7618 109.029 57.38 104.018 60.4366C102.82 61.1678 101.681 61.9709 100.602 62.8459C99.5233 61.9709 98.3845 61.1678 97.1859 60.4366C92.1754 57.38 86.4098 55.7618 80.5004 55.7618C76.2451 55.7618 72.1217 56.5769 68.226 58.1951C64.4622 59.7534 61.07 61.9949 58.1572 64.8477C55.2564 67.678 52.9391 71.0501 51.3368 74.7727C49.6706 78.6444 48.8196 82.7558 48.8196 86.9871C48.8196 90.9787 49.6347 95.1381 51.2529 99.3694C52.6074 102.905 54.5492 106.573 57.0305 110.277C60.9621 116.139 66.3681 122.252 73.0806 128.449C84.2043 138.722 95.2201 145.818 95.6875 146.105L98.5284 147.927C99.787 148.731 101.405 148.731 102.664 147.927L105.505 146.105C105.972 145.806 116.976 138.722 128.112 128.449C134.824 122.252 140.23 116.139 144.162 110.277C146.643 106.573 148.597 102.905 149.939 99.3694C151.557 95.1381 152.373 90.9787 152.373 86.9871C152.385 82.7558 151.534 78.6444 149.867 74.7727V74.7727Z" fill="#ED6674"/>
</g>
<defs>
<clipPath id="clip0">
<rect x="49" y="56" width="103" height="93" fill="white"/>
</clipPath>
</defs>
</svg>
