<svg width="200" height="206" viewBox="0 0 200 206" fill="none" xmlns="http://www.w3.org/2000/svg">
<rect width="200" height="205.776" fill="#FFF3CF"/>
<path d="M79.1526 54.545C79.1526 54.545 93.9202 55.4752 92.4723 69.4661" stroke="black" stroke-width="2.65625" stroke-miterlimit="10" stroke-linecap="round" stroke-linejoin="round"/>
<path d="M121.125 54.545C121.125 54.545 106.358 55.4752 107.806 69.4661" stroke="black" stroke-width="2.65625" stroke-miterlimit="10" stroke-linecap="round" stroke-linejoin="round"/>
<path d="M124.079 121.44C124.079 135.23 100.096 153.804 100.096 153.804C100.096 153.804 76.1224 135.23 76.1224 121.44C76.1224 107.651 86.8625 96.4697 100.105 96.4697C113.348 96.4697 124.079 107.651 124.079 121.44Z" fill="url(#paint0_linear)"/>
<path d="M99.9711 104.765C111.236 104.765 120.368 99.0931 120.368 92.097C120.368 85.1009 111.236 79.4294 99.9711 79.4294C88.7064 79.4294 79.5746 85.1009 79.5746 92.097C79.5746 99.0931 88.7064 104.765 99.9711 104.765Z" fill="black"/>
<path d="M69.2181 113.462C69.2181 110.893 71.3003 108.811 73.8689 108.811H126.342C128.91 108.811 130.993 110.893 130.993 113.462V113.462C130.993 116.031 128.91 118.113 126.342 118.113H73.8689C71.3003 118.113 69.2181 116.031 69.2181 113.462V113.462Z" fill="white"/>
<path d="M68.777 129.476C68.777 126.908 70.8592 124.825 73.4278 124.825H125.901C128.469 124.825 130.552 126.908 130.552 129.476V129.476C130.552 132.045 128.469 134.127 125.901 134.127H73.4278C70.8592 134.127 68.777 132.045 68.777 129.476V129.476Z" fill="white"/>
<path d="M69.2181 147.806C69.2181 144.213 72.1311 141.3 75.7245 141.3H124.486C128.08 141.3 130.993 144.213 130.993 147.806V147.806C130.993 151.4 128.08 154.313 124.486 154.313H75.7245C72.1311 154.313 69.2181 151.4 69.2181 147.806V147.806Z" fill="#FFB300"/>
<path d="M96.3847 149.336L100.105 160.891L103.816 149.499L96.3847 149.336Z" fill="black"/>
<path d="M99.8848 86.2283C106.31 86.2283 111.737 89.7668 111.737 93.9478C111.737 95.7314 110.74 97.1314 109.906 97.9945C109.602 98.3068 109.372 98.6837 109.234 99.097C109.096 99.5104 109.053 99.9497 109.108 100.382C109.164 100.814 109.316 101.229 109.553 101.594C109.791 101.959 110.108 102.266 110.481 102.492C117.146 106.539 121.288 113.903 121.288 121.69C121.288 125.497 118.68 134.118 101.189 149.144C100.786 149.489 100.489 149.94 100.316 150.448L99.9328 151.618L99.578 150.506C99.4133 149.996 99.1114 149.541 98.7054 149.192C86.268 138.519 78.8458 128.201 78.8458 121.594C78.8458 113.779 82.8637 106.471 89.3174 102.521C90.0749 102.06 90.5736 101.284 90.6887 100.401C90.7941 99.5192 90.5065 98.6465 89.8832 98.0136C89.0393 97.141 88.0228 95.7314 88.0228 93.9478C88.0324 89.7668 93.46 86.2283 99.8848 86.2283V86.2283ZM99.8848 83.3228C91.7339 83.3228 85.1268 88.0791 85.1268 93.9478C85.1268 96.2204 86.1241 98.3205 87.8119 100.047C80.7157 104.381 75.9498 112.407 75.9498 121.594C75.9498 132.286 90.3434 145.836 96.8258 151.398L99.9328 161.044L103.097 151.35C109.608 145.759 124.203 132.353 124.203 121.69C124.203 112.474 119.121 104.343 111.996 100.008C113.665 98.2917 114.652 96.2013 114.652 93.9382C114.643 88.0791 108.036 83.3228 99.8848 83.3228V83.3228Z" fill="white"/>
<path d="M99.9808 90.2174C89.653 90.2174 81.9336 82.0281 81.9336 74.7114C81.9336 67.1838 90.027 61.0658 99.9808 61.0658C109.934 61.0658 118.028 67.1838 118.028 74.7114C118.028 82.0281 110.318 90.2174 99.9808 90.2174V90.2174Z" fill="url(#paint1_linear)"/>
<path d="M99.9807 62.5905C109.091 62.5905 116.503 68.0277 116.503 74.7114C116.503 77.9143 114.739 81.424 111.776 84.109C108.515 87.0625 104.325 88.6927 99.9903 88.6927C95.6464 88.6927 91.4558 87.0625 88.205 84.109C85.2419 81.424 83.4775 77.9143 83.4775 74.7114C83.4679 68.0277 90.8804 62.5905 99.9807 62.5905V62.5905ZM99.9807 59.5315C89.1735 59.5315 80.4089 66.3208 80.4089 74.7018C80.4089 83.0829 89.1735 91.7325 99.9807 91.7325C110.788 91.7325 119.553 83.0829 119.553 74.7018C119.553 66.3303 110.798 59.5315 99.9807 59.5315V59.5315Z" fill="#F9A825"/>
<path d="M58.9767 128.345C55.1409 128.345 52.2833 126.245 50.2408 121.929C48.3421 117.911 48.3325 114.498 50.2216 111.506C53.6162 106.145 63.2152 102.137 77.9828 99.9123C85.8173 98.7328 93.2106 98.3588 97.0943 98.2341C94.697 101.226 90.0462 106.807 84.5035 112.35C74.0319 122.812 65.2097 128.345 58.9767 128.345C58.9862 128.345 58.9767 128.345 58.9767 128.345Z" fill="url(#paint2_linear)"/>
<path d="M94.2079 99.6822C85.6063 110.058 69.4003 126.993 58.9863 126.993C56.9054 126.993 53.8656 126.408 51.4682 121.345C49.7805 117.777 49.7517 114.795 51.3723 112.225C57.0396 103.269 80.5719 100.325 94.2079 99.6822V99.6822ZM99.9232 96.8246C99.9232 96.8246 36.8636 96.815 49.0229 122.495C51.449 127.635 54.9491 129.687 58.9863 129.687C75.1251 129.697 99.9232 96.8246 99.9232 96.8246Z" fill="#FFB300"/>
<path d="M62.333 101.859C53.7888 101.859 48.0544 100.171 45.2831 96.8341C43.4419 94.6189 42.8953 91.6846 43.605 87.8584C44.8036 81.424 48.5914 78.2979 55.1889 78.2979C68.8345 78.2979 89.7393 91.6175 96.6724 96.2971C90.5161 97.9944 75.0868 101.859 62.333 101.859V101.859Z" fill="url(#paint3_linear)"/>
<path d="M55.1793 79.65C67.1084 79.65 84.9542 90.2558 93.412 95.7697C86.2008 97.63 73.2552 100.516 62.3329 100.516C54.3258 100.516 48.7928 98.9438 46.3187 95.9711C44.7461 94.082 44.2954 91.512 44.9283 88.1078C46.0214 82.2583 49.1763 79.65 55.1793 79.65ZM55.1793 76.9458C48.7065 76.9458 43.7296 79.7842 42.272 87.6188C40.0185 99.7301 50.049 103.221 62.3329 103.221C78.98 103.221 99.7793 96.8149 99.7793 96.8149C99.7793 96.8149 72.2867 76.9458 55.1793 76.9458Z" fill="#FFB300"/>
<path d="M140.477 128.345C134.243 128.345 125.402 122.802 114.911 112.311C109.388 106.788 104.756 101.216 102.359 98.2341C111.824 98.5314 142.183 100.363 149.232 111.506C151.121 114.498 151.121 117.902 149.212 121.929C147.18 126.245 144.322 128.345 140.477 128.345V128.345Z" fill="url(#paint4_linear)"/>
<path d="M105.274 99.7014C109.369 99.9028 115.199 100.334 121.298 101.245C135.442 103.374 144.955 107.277 148.09 112.225C149.711 114.795 149.682 117.777 147.995 121.345C145.597 126.408 142.557 126.993 140.477 126.993C130.072 126.993 113.876 110.087 105.274 99.7014V99.7014ZM99.5396 96.8246C99.5396 96.8246 124.338 129.687 140.477 129.687C144.514 129.687 148.004 127.635 150.44 122.495C162.59 96.8342 99.5971 96.8246 99.5396 96.8246V96.8246Z" fill="#FFB300"/>
<path d="M137.13 101.859C124.366 101.859 108.947 97.9944 102.8 96.2971C109.733 91.6079 130.638 78.2883 144.284 78.2883C150.881 78.2883 154.669 81.4145 155.867 87.8489C156.577 91.6751 156.03 94.6094 154.189 96.8245C151.408 100.171 145.674 101.859 137.13 101.859Z" fill="url(#paint5_linear)"/>
<path d="M144.284 76.9458V79.65C150.286 79.65 153.441 82.2583 154.535 88.1078C155.167 91.512 154.717 94.082 153.144 95.9711C150.67 98.9438 145.137 100.516 137.13 100.516C126.208 100.516 113.262 97.63 106.051 95.7697C114.509 90.2654 132.354 79.65 144.284 79.65V76.9458V76.9458ZM144.284 76.9458C127.176 76.9458 99.6931 96.8149 99.6931 96.8149C99.6931 96.8149 120.483 103.221 137.139 103.221C149.423 103.221 159.454 99.7301 157.2 87.6188C155.733 79.7842 150.747 76.9458 144.284 76.9458V76.9458Z" fill="#FFB300"/>
<path d="M90.5256 79.8418C93.7986 79.8418 96.4519 77.1886 96.4519 73.9156C96.4519 70.6426 93.7986 67.9894 90.5256 67.9894C87.2527 67.9894 84.5994 70.6426 84.5994 73.9156C84.5994 77.1886 87.2527 79.8418 90.5256 79.8418Z" fill="white"/>
<path d="M90.5256 76.6197C92.0191 76.6197 93.2298 75.409 93.2298 73.9155C93.2298 72.422 92.0191 71.2113 90.5256 71.2113C89.0321 71.2113 87.8214 72.422 87.8214 73.9155C87.8214 75.409 89.0321 76.6197 90.5256 76.6197Z" fill="black"/>
<path d="M109.599 79.8418C112.872 79.8418 115.525 77.1886 115.525 73.9156C115.525 70.6426 112.872 67.9894 109.599 67.9894C106.326 67.9894 103.673 70.6426 103.673 73.9156C103.673 77.1886 106.326 79.8418 109.599 79.8418Z" fill="white"/>
<path d="M109.599 76.6197C111.092 76.6197 112.303 75.409 112.303 73.9155C112.303 72.422 111.092 71.2113 109.599 71.2113C108.105 71.2113 106.895 72.422 106.895 73.9155C106.895 75.409 108.105 76.6197 109.599 76.6197Z" fill="black"/>
<path d="M77.1869 56.6355C78.6697 56.6355 79.8719 55.4334 79.8719 53.9505C79.8719 52.4676 78.6697 51.2655 77.1869 51.2655C75.704 51.2655 74.5018 52.4676 74.5018 53.9505C74.5018 55.4334 75.704 56.6355 77.1869 56.6355Z" fill="#E6E7E8" stroke="#231F20" stroke-width="1.32812" stroke-miterlimit="10" stroke-linecap="round"/>
<path d="M122.276 56.6355C123.759 56.6355 124.961 55.4334 124.961 53.9505C124.961 52.4676 123.759 51.2655 122.276 51.2655C120.793 51.2655 119.591 52.4676 119.591 53.9505C119.591 55.4334 120.793 56.6355 122.276 56.6355Z" fill="#E6E7E8" stroke="#231F20" stroke-width="1.32812" stroke-miterlimit="10" stroke-linecap="round"/>
<defs>
<linearGradient id="paint0_linear" x1="93.2298" y1="110.879" x2="117.032" y2="143.295" gradientUnits="userSpaceOnUse">
<stop offset="0.001" stop-color="#FFD54F"/>
<stop offset="0.212" stop-color="#FFD045"/>
<stop offset="0.576" stop-color="#FFC428"/>
<stop offset="1" stop-color="#FFB300"/>
</linearGradient>
<linearGradient id="paint1_linear" x1="99.9855" y1="61.4695" x2="99.9855" y2="89.9163" gradientUnits="userSpaceOnUse">
<stop offset="0.001" stop-color="#FFD54F"/>
<stop offset="0.212" stop-color="#FFD045"/>
<stop offset="0.576" stop-color="#FFC428"/>
<stop offset="1" stop-color="#FFB300"/>
</linearGradient>
<linearGradient id="paint2_linear" x1="76.0012" y1="97.354" x2="54.6269" y2="165.094" gradientUnits="userSpaceOnUse">
<stop stop-color="#FFD54F"/>
<stop offset="0.304" stop-color="#FFD54F"/>
<stop offset="0.687073" stop-color="#FFD54F"/>
<stop offset="0.829" stop-color="#FFD54F"/>
<stop offset="1" stop-color="#FFD045"/>
</linearGradient>
<linearGradient id="paint3_linear" x1="73.3585" y1="77.6092" x2="60.958" y2="133.122" gradientUnits="userSpaceOnUse">
<stop stop-color="#FFD54F"/>
<stop offset="0.304" stop-color="#FFD54F"/>
<stop offset="0.687073" stop-color="#FFD54F"/>
<stop offset="0.829" stop-color="#FFD54F"/>
<stop offset="1" stop-color="#FFD045"/>
</linearGradient>
<linearGradient id="paint4_linear" x1="129.551" y1="97.354" x2="108.178" y2="165.095" gradientUnits="userSpaceOnUse">
<stop stop-color="#FFD54F"/>
<stop offset="0.304" stop-color="#FFD54F"/>
<stop offset="0.687073" stop-color="#FFD54F"/>
<stop offset="0.829" stop-color="#FFD54F"/>
<stop offset="1" stop-color="#FFD045"/>
</linearGradient>
<linearGradient id="paint5_linear" x1="132.853" y1="77.5994" x2="120.443" y2="133.133" gradientUnits="userSpaceOnUse">
<stop stop-color="#FFD54F"/>
<stop offset="0.304" stop-color="#FFD54F"/>
<stop offset="0.687073" stop-color="#FFD54F"/>
<stop offset="0.829" stop-color="#FFD54F"/>
<stop offset="1" stop-color="#FFD045"/>
</linearGradient>
</defs>
</svg>
