<svg width="200" height="206" viewBox="0 0 200 206" fill="none" xmlns="http://www.w3.org/2000/svg">
<rect width="200" height="205.776" fill="#EAE4F5"/>
<g clip-path="url(#clip0)">
<path d="M133.777 51.1697C132.358 51.1697 130.977 51.7259 129.941 52.7615C121.225 61.4782 113.582 63.1276 102.525 63.1276C99.1691 63.1276 95.4868 62.955 91.5743 62.792C88.5058 62.6577 85.3413 62.5139 81.9083 62.4276C81.3041 62.4084 80.7192 62.4084 80.1342 62.4084C52.1717 62.4084 43.2248 79.324 42.8509 80.0432C42.381 80.9734 42.1796 82.009 42.2851 83.0447L48.4127 144.081C48.5121 145.075 48.8845 146.022 49.4887 146.817C50.0929 147.613 50.9053 148.225 51.8361 148.588C52.4786 148.837 53.1402 148.962 53.8115 148.962C55.1156 148.962 56.4006 148.482 57.4075 147.591C57.5034 147.514 68.7325 137.896 86.6934 137.896C88.9852 137.896 91.3346 138.059 93.6552 138.366C102.103 139.488 108.279 139.986 113.668 139.986C130.929 139.986 143.692 134.424 156.35 121.392C157.028 120.698 157.507 119.834 157.734 118.89C157.962 117.947 157.931 116.959 157.645 116.032L138.955 54.9958C138.681 54.1016 138.18 53.2936 137.501 52.65C136.822 52.0065 135.989 51.5494 135.081 51.3231C134.65 51.2272 134.209 51.1697 133.777 51.1697Z" fill="white"/>
<path d="M133.777 51.1697C132.358 51.1697 130.977 51.7259 129.941 52.7615C121.225 61.4782 113.582 63.1276 102.525 63.1276C99.1691 63.1276 95.4868 62.955 91.5743 62.792C88.5058 62.6577 85.3413 62.5139 81.9083 62.4276C81.3041 62.4084 80.7192 62.4084 80.1342 62.4084C52.1717 62.4084 43.2248 79.324 42.8509 80.0432C42.381 80.9734 42.1796 82.009 42.2851 83.0447L48.4127 144.081C48.5121 145.075 48.8845 146.022 49.4887 146.817C50.0929 147.613 50.9053 148.225 51.8361 148.588C52.4786 148.837 53.1402 148.962 53.8115 148.962C55.1156 148.962 56.4006 148.482 57.4075 147.591C57.5034 147.514 68.7325 137.896 86.6934 137.896C88.9852 137.896 91.3346 138.059 93.6552 138.366C102.103 139.488 108.279 139.986 113.668 139.986C130.929 139.986 143.692 134.424 156.35 121.392C157.028 120.698 157.507 119.834 157.734 118.89C157.962 117.947 157.931 116.959 157.645 116.032L138.955 54.9958C138.681 54.1016 138.18 53.2936 137.501 52.65C136.822 52.0065 135.989 51.5494 135.081 51.3231C134.65 51.2272 134.209 51.1697 133.777 51.1697Z" stroke="#B39DDB" stroke-width="6.64062" stroke-miterlimit="10"/>
<path d="M88.918 110.173V107.229C88.918 105.877 89.0523 104.649 89.3304 103.547C89.6085 102.444 90.0304 101.399 90.6058 100.401C91.1715 99.4039 91.9099 98.4354 92.8113 97.4956C93.7127 96.5559 94.8059 95.5778 96.0717 94.5709C97.1841 93.6983 98.1238 92.9119 98.9006 92.2215C99.6677 91.5311 100.291 90.8502 100.77 90.1694C101.25 89.4885 101.595 88.7789 101.806 88.0405C102.017 87.2926 102.123 86.4295 102.123 85.4514C102.123 83.9363 101.605 82.6897 100.588 81.7116C99.5622 80.7335 98.0088 80.2348 95.9087 80.2348C94.0771 80.2348 92.1113 80.6184 89.9921 81.3855C87.8824 82.1527 85.7056 83.102 83.4425 84.2144L79.3862 75.421C80.5274 74.7593 81.7644 74.1264 83.1069 73.5319C84.4494 72.9373 85.8399 72.4003 87.2879 71.94C88.7358 71.4797 90.203 71.1153 91.6894 70.8468C93.1757 70.5783 94.6333 70.4441 96.0621 70.4441C98.7663 70.4441 101.212 70.7701 103.388 71.4222C105.565 72.0743 107.406 73.0236 108.921 74.2702C110.437 75.5169 111.597 77.032 112.402 78.806C113.208 80.58 113.62 82.613 113.62 84.8952C113.62 86.5638 113.438 88.0597 113.064 89.3735C112.69 90.6872 112.143 91.9051 111.415 93.0366C110.686 94.1681 109.765 95.2517 108.672 96.297C107.438 97.4573 106.155 98.5643 104.827 99.6149C103.714 100.488 102.803 101.255 102.103 101.907C101.403 102.559 100.847 103.173 100.454 103.757C100.051 104.342 99.7828 104.947 99.6389 105.57C99.4951 106.193 99.4184 106.932 99.4184 107.775V110.163H88.918V110.173ZM87.5947 123.78C87.5947 122.533 87.7769 121.479 88.1317 120.616C88.4865 119.753 88.9852 119.062 89.6277 118.525C90.2606 117.998 91.0181 117.605 91.8812 117.374C92.7442 117.135 93.6648 117.02 94.6429 117.02C95.5731 117.02 96.4553 117.144 97.2895 117.374C98.1238 117.614 98.8622 117.998 99.4951 118.525C100.128 119.053 100.636 119.753 101.01 120.616C101.384 121.479 101.566 122.533 101.566 123.78C101.566 124.969 101.384 125.995 101.01 126.839C100.636 127.693 100.138 128.393 99.4951 128.949C98.8526 129.505 98.1238 129.908 97.2895 130.167C96.4553 130.425 95.5731 130.55 94.6429 130.55C93.6552 130.55 92.7346 130.425 91.8812 130.167C91.0181 129.917 90.2701 129.514 89.6277 128.949C88.9948 128.393 88.4961 127.693 88.1317 126.839C87.7769 125.995 87.5947 124.969 87.5947 123.78V123.78Z" fill="#B39DDB"/>
</g>
<defs>
<clipPath id="clip0">
<rect x="38.2671" y="41.0432" width="122.744" height="122.744" fill="white"/>
</clipPath>
</defs>
</svg>
