<svg width="200" height="206" viewBox="0 0 200 206" fill="none" xmlns="http://www.w3.org/2000/svg">
<rect width="200" height="205.776" fill="#C6DCF9"/>
<path d="M54.5966 134.074H140.15C155.851 134.074 168.573 120.271 168.573 103.249C168.573 86.2244 155.848 72.4243 140.15 72.4243H54.5966C38.9014 72.4243 26.1738 86.2244 26.1738 103.249C26.1738 120.271 38.9014 134.074 54.5966 134.074V134.074Z" fill="#A0C4F6"/>
<path d="M140.093 134.139C155.823 134.139 168.575 120.309 168.575 103.249C168.575 86.1892 155.823 72.3595 140.093 72.3595C124.362 72.3595 111.61 86.1892 111.61 103.249C111.61 120.309 124.362 134.139 140.093 134.139Z" fill="#2E7FEC"/>
<path d="M120.148 125.092C131.27 137.153 149.306 137.153 160.427 125.092C171.549 113.031 171.551 93.4704 160.427 81.4061" fill="#2668C2"/>
<path d="M56.5966 133.073H142.15C157.851 133.073 170.573 119.27 170.573 102.249C170.573 85.224 157.848 71.424 142.15 71.424H56.5966C40.9014 71.424 28.1738 85.224 28.1738 102.249C28.1738 119.27 40.9014 133.073 56.5966 133.073V133.073Z" stroke="#EEEEEE" stroke-width="4.72222" stroke-miterlimit="10" stroke-linecap="round" stroke-linejoin="round"/>
<path d="M142.093 133.139C157.823 133.139 170.575 119.309 170.575 102.249C170.575 85.1892 157.823 71.3595 142.093 71.3595C126.362 71.3595 113.61 85.1892 113.61 102.249C113.61 119.309 126.362 133.139 142.093 133.139Z" stroke="#EEEEEE" stroke-width="4.72222" stroke-miterlimit="10" stroke-linecap="round" stroke-linejoin="round"/>
<path d="M122.148 124.092C133.27 136.153 151.306 136.153 162.427 124.092C173.549 112.031 173.552 92.4705 162.427 80.4062" stroke="#EEEEEE" stroke-width="4.72222" stroke-miterlimit="10" stroke-linecap="round" stroke-linejoin="round"/>
</svg>
